<?xml version="1.0" encoding="UTF-8"?> <svg xmlns="http://www.w3.org/2000/svg" xmlns:xlink="http://www.w3.org/1999/xlink" height="300px" width="300px" fill="#000000" x="0px" y="0px" viewBox="0 0 100 100" style="enable-background:new 0 0 100 100;" xml:space="preserve"> <path d="M83.2,29.2c-4.9,0-8.9,4-8.9,8.9s4,8.9,8.9,8.9s8.9-4,8.9-8.9S88.1,29.2,83.2,29.2z M83.2,45.4c-4,0-7.2-3.2-7.2-7.2 s3.2-7.2,7.2-7.2s7.2,3.2,7.2,7.2S87.1,45.4,83.2,45.4z"></path> <path d="M50.7,52.2l-6.3-0.9l-6.6-0.8L35,51.9l9.2,1.1l6.3,0.8c0.9,0.1,1.8,0.6,2.3,1.4c0.5,0.8,0.7,1.8,0.4,2.7l-7.5,25.9l-7.2-1.3 l4.3-19.4c0.1-0.2,0-0.5-0.1-0.7c-0.1-0.2-0.4-0.3-0.6-0.3l-4-0.5c0,0.2,0,0.4,0,0.6c0,0.4,0,0.7-0.1,1.1l2.9,0.3L36.5,83 c0,0.2,0,0.5,0.1,0.6c0.1,0.2,0.3,0.3,0.6,0.4l8.8,1.6c0.1,0,0.1,0,0.2,0c0.4,0,0.7-0.2,0.8-0.6l7.8-26.7c0.4-1.4,0.2-2.8-0.6-4 C53.4,53.2,52.1,52.4,50.7,52.2z"></path> <path d="M47.4,27.3c-2-1.8-4.9-2.1-7.2-0.9l-18.6,9.7c-4.2,2.2-6,7.3-4.1,11.7L23.8,62L8.2,77.7c-0.2,0.2-0.2,0.4-0.2,0.6 c0,0.2,0.1,0.4,0.3,0.6l6.6,6.1c0.2,0.1,0.4,0.2,0.6,0.2c0.2,0,0.4-0.1,0.6-0.2l18-15.9c1.7-1.5,2.8-3.6,3-5.9c0-0.3,0-0.6,0-0.9 c0-1.3-0.3-2.5-0.8-3.7l-3.1-7l2.9-1.4l14.8-7.1l14.6,10.5c0.4,0.3,0.9,0.2,1.2-0.2l3.8-5c0.3-0.4,0.2-0.8-0.1-1.1L47.4,27.3z M65.7,51.9L51.4,41.6c-0.2-0.2-0.6-0.2-0.9-0.1l-18.9,9c-0.4,0.2-0.6,0.7-0.4,1.1l3.4,7.7c0.4,0.9,0.6,1.9,0.6,3 c0,2.1-0.9,4.1-2.5,5.5L15.4,83.3l-5.4-5l15.4-15.5c0.2-0.2,0.3-0.6,0.2-0.9L19,47.1c-1.6-3.5-0.1-7.7,3.3-9.5L41,27.9 c1.7-0.9,3.9-0.6,5.3,0.7l22.2,19.6L65.7,51.9z"></path> <path d="M58.1,32.1c4.9,0,8.9-4,8.9-8.9s-4-8.9-8.9-8.9s-8.9,4-8.9,8.9S53.2,32.1,58.1,32.1z M58.1,16c4,0,7.2,3.2,7.2,7.2 s-3.2,7.2-7.2,7.2s-7.2-3.2-7.2-7.2S54.2,16,58.1,16z"></path> </svg> 