<?xml version="1.0" encoding="UTF-8"?> <svg xmlns="http://www.w3.org/2000/svg" xmlns:xlink="http://www.w3.org/1999/xlink" height="300px" width="300px" fill="#000000" x="0px" y="0px" viewBox="0 0 100 100" style="enable-background:new 0 0 100 100;" xml:space="preserve"> <g> <path d="M26.2,93.5c-0.2,0-0.3-0.1-0.5-0.2l-4.1-3.4c-0.3-0.3-0.4-0.7-0.1-1l20-25.8l-5.7-19.7L25.4,60.2c-0.2,0.3-0.6,0.4-1,0.2 l-4.2-2.5c-0.3-0.2-0.5-0.6-0.3-1l13.1-23.8c0.1-0.2,0.3-0.3,0.5-0.4l14.8-3.2c0,0,0,0,0,0l2.5-0.4c0,0,0,0,0.1,0l24.6-1.6 c0.4,0,0.7,0.3,0.8,0.7l0.4,4.8c0,0.4-0.2,0.7-0.6,0.8L53,36.6l4,21.7c0,0,0,0,0,0l6.4,18c0,0.1,0,0.2,0,0.3l-0.8,16 c0,0.4-0.3,0.7-0.7,0.7h0l-5.1,0c-0.4,0-0.7-0.3-0.7-0.7l-0.9-15.4L50,68.1L26.7,93.3C26.6,93.4,26.4,93.5,26.2,93.5z M57.5,91.9 l3.7,0l0.8-15.2L55.7,59c0-0.1-0.1-0.1-0.1-0.2l-4.1-22.6c0-0.2,0-0.4,0.1-0.6c0.1-0.2,0.3-0.3,0.5-0.3l23.3-2.7L75,29.1l-23.9,1.5 L48.7,31l-14.5,3.1L21.6,57l3,1.7l10.9-17.6c0.2-0.2,0.4-0.4,0.7-0.3c0.3,0,0.5,0.2,0.6,0.5L43,63.1c0.1,0.2,0,0.5-0.1,0.6 L23.1,89.3l3,2.5l23.5-25.5c0.2-0.2,0.4-0.3,0.6-0.2c0.2,0,0.4,0.2,0.6,0.4l5.8,10.2c0.1,0.1,0.1,0.2,0.1,0.3L57.5,91.9z"></path> </g> <g> <path d="M40.8,30c-3.9,0-7-3.2-7-7s3.2-7,7-7s7,3.2,7,7S44.6,30,40.8,30z M40.8,17.4c-3.1,0-5.6,2.5-5.6,5.6s2.5,5.6,5.6,5.6 s5.6-2.5,5.6-5.6S43.8,17.4,40.8,17.4z"></path> </g> <g> <path d="M73.1,20.6c-3.9,0-7-3.2-7-7s3.2-7,7-7s7,3.2,7,7S77,20.6,73.1,20.6z M73.1,7.9c-3.1,0-5.6,2.5-5.6,5.6s2.5,5.6,5.6,5.6 s5.6-2.5,5.6-5.6S76.1,7.9,73.1,7.9z"></path> </g> </svg> 