<?xml version="1.0" encoding="UTF-8"?> <svg xmlns="http://www.w3.org/2000/svg" xmlns:xlink="http://www.w3.org/1999/xlink" height="300px" width="300px" fill="#000000" x="0px" y="0px" viewBox="0 0 100 100" style="enable-background:new 0 0 100 100;" xml:space="preserve"> <g> <g> <path d="M52.2,21.7c-3.4,0-6.2-2.8-6.2-6.2s2.8-6.2,6.2-6.2c3.4,0,6.2,2.8,6.2,6.2S55.7,21.7,52.2,21.7z M52.2,10.7 c-2.7,0-4.8,2.2-4.8,4.8s2.2,4.8,4.8,4.8c2.7,0,4.8-2.2,4.8-4.8S54.9,10.7,52.2,10.7z"></path> </g> <g> <path d="M41.5,38.4c3.9,0,7-3.2,7-7s-3.2-7-7-7s-7,3.2-7,7S37.7,38.4,41.5,38.4z M41.5,25.8c3.1,0,5.6,2.5,5.6,5.6 S44.7,37,41.5,37c-3.1,0-5.6-2.5-5.6-5.6S38.4,25.8,41.5,25.8z"></path> <path d="M49.5,89.1l-13.3-6.7l-4.1-1.1c-0.5-0.1-0.9-0.6-0.9-1.2c0-0.1,0-0.2,0-0.2l0,0l0-0.1l1.3-5.7c0,0,0,0,0,0c0,0,0,0,0,0h0 c0,0,0,0,0,0l0.1-0.6c-0.1,0.1-0.2,0.2-0.2,0.3l-2.8,6.1c-0.2,0.3,0,0.7,0.3,0.9l19.6,9.9c0.1,0.1,0.2,0.1,0.3,0.1 c0.1,0,0.2,0,0.2,0c0.2-0.1,0.3-0.2,0.4-0.4l1.7-3.7l-1.4-0.4L49.5,89.1z"></path> <path d="M75.5,46.7L60.3,39L60,38.8l-0.8-0.4L59,38.4l-0.2,0h0h0l-4-0.1l0,0l0,0l-0.5,0l-4.6-0.1l-0.4,0h0l-0.5,0h0h0l-0.1,0 l-0.1,0l0,0l-3.8,1l-0.5,0.1l-6.6,1.8l-4.6-0.5L29.8,26c-0.1-0.4-0.5-0.6-0.8-0.5l-4.3,1c-0.4,0.1-0.6,0.4-0.5,0.8l2.2,12.8 l0.2,0.9l0.1,0.5l0.8,4.4l0.2,0.9l0.1,0.5l0.5,0.1l1,0.1l1.3,0.2l2.3,0.3l0.9,0.1l0.4,0.1l0,0l0.5,0.1l1.8,0.2l2.9,9.4l1.9,6.1 l3.2,5.6l0.2,0.3l-0.3,5L34,72.9c-0.4-0.1-0.7,0.1-0.8,0.5c0,0,0,0,0,0L33,74.2l0,0c0,0,0,0,0,0l-0.7,3.3l-0.5,2.4 c0,0.1,0,0.1,0,0.2c0,0.3,0.2,0.6,0.5,0.7l1.7,0.5l17.1,4.6l0.8,0.2l0.6,0.2l1,0.3c0.1,0,0.1,0,0.2,0c0.1,0,0.3,0,0.4-0.1 c0.2-0.1,0.3-0.3,0.3-0.4l0.4-1.5l0.1-0.6l1-4.2c0,0,0,0,0,0l0-0.1l0-0.1l0.1-1.5l0-0.5l0.8-11.5l0-0.5l0.1-1.9l0-0.1l0-0.1 l-0.5-1.9l-0.1-0.5l-4.2-15.5l6.2-0.1l15,6.6c0.1,0,0.2,0.1,0.3,0.1c0.3,0,0.5-0.2,0.6-0.4l1.8-4.1C76,47.3,75.9,46.9,75.5,46.7z M50.3,45.1l0.1,0.5L54.7,61l0.3,1l0.1,0.5l0.3,1.3L55.4,65l0,0.5l0,0l0,0l-0.1,1l-0.7,10.7L54.5,78l0,0.6l-0.1,0.8l-0.7,3 l-0.1,0.6l-0.1,0.3c0,0,0,0,0,0c0,0,0,0,0,0l-0.1,0.3l-0.2,0.7l0,0l0,0.1l-0.1,0.6l0,0l0,0l-0.8-0.2l-0.6-0.2L50,84.1l-6.4-1.7 l-10.4-2.8l1-4.3l0.2-0.8l0,0l0,0l0-0.1l2.2,0.5l7.5,1.6l0.6,0.1l0.8,0.2l0.1-0.8l0-0.6l0.2-3.1l0.2-2.5L45,68l-2.6-4.5l-4.6-14.8 l-0.3-1.1l-0.1-0.4l-0.4-0.1l0,0L35.8,47l-1.2-0.2l-0.5-0.1h0h0l-1-0.1l-4.3-0.6L28,41.6l-0.2-0.9l-0.1-0.5l-2.2-12.5l3-0.7 l3.1,13.6l0.2,1l0.1,0.5l0.5,0l1,0.1l1,0.1l3.3,0.3l0.1,0l0.1,0l2.5-0.7l3.8-1l0.9-0.3l0.5-0.1l3-0.8l0.2,0l0.4,0h0h0l0,0 c0,0,0,0,0,0c0,0,0,0,0,0l0.9,0l3.4,0.1l1.1,0l0,0l0,0l0.5,0l3.4,0.1l0.3,0.1l0.4,0.2l1,0.5l14,7.1l-1.2,2.8l-12.8-5.6l-1.7-0.7 l0,0l0,0L58.4,44l-0.2,0h0h0l-3.2,0.1l-3.5,0.1l-0.6,0l-0.9,0L50.3,45.1z"></path> </g> </g> </svg> 